<?xml version="1.0" encoding="UTF-8" standalone="no"?>
<!-- Created with Inkscape (http://www.inkscape.org/) -->

<svg
   width="48"
   height="48"
   viewBox="0 0 48 48"
   version="1.1"
   id="svg1"
   inkscape:version="1.4.4 (dcaf3e7, 2026-05-05)"
   sodipodi:docname="Gene_ApparelIncineration.svg"
   inkscape:export-filename="Gene_ApparelIncineration.png"
   inkscape:export-xdpi="256"
   inkscape:export-ydpi="256"
   xmlns:inkscape="http://www.inkscape.org/namespaces/inkscape"
   xmlns:sodipodi="http://sodipodi.sourceforge.net/DTD/sodipodi-0.dtd"
   xmlns="http://www.w3.org/2000/svg"
   xmlns:svg="http://www.w3.org/2000/svg">
  <sodipodi:namedview
     id="namedview1"
     pagecolor="#ffffff"
     bordercolor="#000000"
     borderopacity="0.25"
     inkscape:showpageshadow="2"
     inkscape:pageopacity="0.0"
     inkscape:pagecheckerboard="0"
     inkscape:deskcolor="#d1d1d1"
     inkscape:document-units="px"
     showgrid="true"
     inkscape:zoom="25.270833"
     inkscape:cx="15.39324"
     inkscape:cy="22.852432"
     inkscape:window-width="2560"
     inkscape:window-height="1494"
     inkscape:window-x="-11"
     inkscape:window-y="-11"
     inkscape:window-maximized="1"
     inkscape:current-layer="g7">
    <inkscape:grid
       id="grid1"
       units="px"
       originx="0"
       originy="0"
       spacingx="1"
       spacingy="1"
       empcolor="#000000"
       empopacity="0.8627451"
       color="#0099e5"
       opacity="0.14901961"
       empspacing="8"
       enabled="true"
       visible="true" />
  </sodipodi:namedview>
  <defs
     id="defs1">
    <filter
       style="color-interpolation-filters:sRGB;"
       inkscape:label="Blur"
       id="filter7"
       x="-0.13598047"
       y="-0.30999862"
       width="1.2719609"
       height="1.6199972">
      <feGaussianBlur
         stdDeviation="2 2"
         result="blur"
         id="feGaussianBlur7" />
    </filter>
    <filter
       height="1.331367"
       width="1.1398926"
       y="-0.16568348"
       x="-0.069946286"
       style="color-interpolation-filters:sRGB;"
       inkscape:label="Blur"
       id="filter6">
      <feGaussianBlur
         stdDeviation="1 1"
         result="blur"
         id="feGaussianBlur6" />
      <feColorMatrix
         values="1 0 0 0 0 0 1 0 0 0 0 0 1 0 0 0 0 0 50 0 "
         result="colormatrix"
         id="feColorMatrix6" />
      <feComposite
         in="colormatrix"
         in2="SourceGraphic"
         operator="in"
         id="feComposite6" />
    </filter>
  </defs>
  <g
     inkscape:label="Layer 1"
     inkscape:groupmode="layer"
     id="layer1">
    <g
       id="g7"
       transform="translate(1.995707,0.607034)">
      <path
         style="baseline-shift:baseline;display:inline;overflow:visible;opacity:1;vector-effect:none;fill:#f9ea00;fill-opacity:1;stroke-linecap:round;stroke-linejoin:round;filter:url(#filter7);enable-background:accumulate;stop-color:#000000;stop-opacity:1"
         d="M 33.318359,6.7109375 C 32.862675,6.6201582 32.361349,6.8161779 31.962891,7.21875 a 0.50005,0.50005 0 0 0 -0.06445,0.080078 c -0.496603,0.7679579 -0.67665,1.636351 -0.935546,2.3691407 -0.258897,0.7327893 -0.551832,1.2973303 -1.195313,1.6503903 a 0.50005,0.50005 0 0 0 -0.07031,0.04687 c -0.340571,0.270926 -0.562562,0.322245 -0.738282,0.310547 -0.175719,-0.0117 -0.359314,-0.100206 -0.576172,-0.287109 -0.433714,-0.373806 -0.875426,-1.093276 -1.439453,-1.6250002 A 0.50005,0.50005 0 0 0 26.78125,9.6621094 c -0.320301,-0.124476 -0.634782,-0.1690919 -0.927734,-0.1074219 -0.292953,0.06167 -0.538417,0.2294694 -0.710938,0.4238281 -0.345042,0.3887174 -0.483892,0.8649814 -0.623047,1.2890624 -0.139154,0.424081 -0.284797,0.801927 -0.388672,0.927735 -0.05194,0.0629 -0.06166,0.06298 -0.08203,0.06641 -0.0121,0.002 -0.09625,-0.0289 -0.154297,-0.04492 -0.33072,-0.388751 -0.600396,-1.237619 -0.96289,-2.058594 C 22.744192,9.7336713 22.520667,9.3144015 22.15625,8.9921875 21.791833,8.6699735 21.263581,8.4861542 20.679687,8.5605469 a 0.50005,0.50005 0 0 0 -0.419921,0.3632812 c -0.192783,0.701064 -0.121875,1.4094039 -0.212891,1.9199219 -0.04551,0.255259 -0.118109,0.446322 -0.232422,0.585938 -0.114313,0.139615 -0.275885,0.25551 -0.611328,0.333984 a 0.50005,0.50005 0 0 0 -0.03906,0.01172 c -0.488005,0.156793 -1.058769,0.272291 -1.574218,0.263672 -0.51545,-0.0086 -0.956774,-0.134901 -1.277344,-0.416016 l 0.01563,0.01367 c -0.790379,-0.754457 -1.839528,-0.830569 -2.621094,-0.423828 -0.698753,0.363643 -1.156941,1.101466 -1.269531,1.953125 -0.175065,0.205063 -0.302089,0.258404 -0.34375,0.259765 -0.04476,0.0015 -0.09308,-0.0131 -0.169922,-0.113281 -0.153683,-0.200357 -0.225346,-0.675195 -0.0059,-0.986328 A 0.50005,0.50005 0 0 0 12,12.134766 C 12.185528,11.191122 11.678955,10.289716 10.964844,9.7695313 10.607788,9.5094388 10.176964,9.3365826 9.7148438,9.3496094 9.252723,9.3626361 8.7777841,9.5880292 8.4277344,10.007813 7.8063539,10.755174 7.916272,11.640164 7.9628906,12.298828 c 0.023309,0.329332 0.030371,0.618259 -0.019531,0.853516 -0.049902,0.235256 -0.1375982,0.419855 -0.3691407,0.625 a 0.50005,0.50005 0 0 0 -0.1132812,0.148437 c -0.6472624,1.271242 -1.095492,2.552274 -1.875,3.595703 a 0.50005,0.50005 0 0 0 -0.025391,0.03906 c -0.2907278,0.478673 -0.3604449,0.999147 -0.2539063,1.445312 0.1065386,0.446166 0.3523943,0.81207 0.6152344,1.142578 0.5256803,0.661017 1.1334304,1.237806 1.2988281,1.69336 a 0.50005,0.50005 0 0 0 0.9160157,0.05859 c 0.898262,-1.756143 1.8959384,-3.458066 3.0878904,-5.003907 a 0.50005,0.50005 0 0 0 0.03125,-0.04492 c 0.797304,-1.313246 1.985358,-2.437965 3.453125,-2.687499 a 0.50005,0.50005 0 0 0 0.01953,-0.0039 c 0.851557,-0.179941 1.628999,0.04619 2.46289,0.431641 0.828927,0.383154 1.679863,0.922091 2.628906,1.263672 1.57764,0.670401 3.508521,0.824964 5.076172,-0.185547 1.693056,-1.024602 3.73166,-1.704709 5.486328,-0.855469 a 0.50005,0.50005 0 0 0 0.06055,0.02539 c 2.562485,0.85005 4.045094,3.402267 5.109375,5.908203 0.04,0.168893 0.08099,0.321966 0.138672,0.449219 0.06769,0.149329 0.148676,0.313248 0.382813,0.419921 0.234137,0.106674 0.537603,0.0048 0.666015,-0.103515 0.128413,-0.108267 0.189598,-0.214228 0.25,-0.322266 0.241611,-0.432149 0.402805,-1.028101 0.507813,-1.28125 a 0.50005,0.50005 0 0 0 0.02344,-0.07031 c 0.177085,-0.704775 0.62227,-1.298519 1.132813,-1.945313 0.510543,-0.646793 1.086132,-1.342546 1.36914,-2.273437 a 0.50005,0.50005 0 0 0 0.0039,-0.01172 c 0.37346,-1.352767 0.93156,-3.134422 0.0957,-4.697266 -0.105919,-0.340553 -0.311885,-0.595754 -0.558594,-0.814453 -0.262816,-0.2329773 -0.562372,-0.4255587 -0.871094,-0.5468747 -0.15436,-0.060658 -0.310927,-0.105192 -0.490234,-0.1113282 -0.179307,-0.00614 -0.415538,0.035141 -0.595703,0.2167969 -0.180165,0.1816555 -0.22869,0.4393 -0.210938,0.648438 0.01775,0.209137 0.08585,0.409761 0.191407,0.640625 l -0.0332,-0.09375 c 0.155119,0.660302 -0.03787,1.218142 -0.40625,1.832031 -0.368383,0.613889 -0.910365,1.231105 -1.335937,1.910156 a 0.50005,0.50005 0 0 0 -0.07813,0.275391 c 0.0057,0.281548 -0.0538,0.427123 -0.08008,0.464843 -0.02628,0.03772 0.0085,0.01455 -0.02148,0.01367 -0.05989,-0.0018 -0.39988,-0.170443 -0.613281,-0.591797 a 0.50005,0.50005 0 0 0 -0.0625,-0.09766 c -0.531883,-0.632891 -0.605825,-1.331089 -0.521484,-2.171875 0.08197,-0.817131 0.333873,-1.720933 0.419922,-2.6289061 v -0.00195 C 35.042042,9.0759606 34.817896,8.1607244 34.341797,7.4628906 34.103558,7.1136962 33.774044,6.8017168 33.318359,6.7109375 Z m -0.195312,0.9804687 c 0.09176,0.01828 0.245572,0.1204658 0.392578,0.3359376 0.294013,0.4309435 0.450169,1.250309 0.367187,1.5957031 a 0.50005,0.50005 0 0 0 -0.01172,0.076172 c -0.06584,0.7884361 -0.332575,1.7193901 -0.429688,2.6875001 -0.09599,0.956925 0.01052,2.00014 0.734375,2.882812 0.33008,0.612071 0.810757,1.058079 1.427735,1.076172 0.320977,0.0094 0.673413,-0.157622 0.871093,-0.441406 0.149402,-0.214477 0.171994,-0.504981 0.197266,-0.796875 0.361465,-0.572022 0.903657,-1.191089 1.333984,-1.908203 0.434438,-0.723964 0.75322,-1.598046 0.523438,-2.576172 a 0.50005,0.50005 0 0 0 -0.0059,-0.01758 c 0.129494,0.07294 0.260906,0.137362 0.376954,0.240234 0.176249,0.156239 0.285036,0.34172 0.291015,0.365235 a 0.50005,0.50005 0 0 0 0.04883,0.123046 c 0.621438,1.102417 0.208103,2.60945 -0.175781,4 -0.212396,0.695017 -0.680743,1.289512 -1.195312,1.941407 -0.515552,0.653138 -1.076841,1.366871 -1.316407,2.320312 l 0.02148,-0.06836 c -0.07915,0.19081 -0.151581,0.372755 -0.232422,0.595703 -1.090806,-2.511835 -2.653123,-5.234929 -5.550781,-6.214844 -2.204878,-1.050699 -4.601983,-0.192313 -6.425782,0.914063 a 0.50005,0.50005 0 0 0 -0.01172,0.0059 c -1.212886,0.781829 -2.793229,0.685644 -4.152344,0.105469 a 0.50005,0.50005 0 0 0 -0.0293,-0.01172 c -0.80834,-0.288529 -1.644242,-0.814738 -2.560547,-1.238281 -0.913009,-0.42202 -1.940802,-0.73843 -3.078125,-0.501953 -0.551729,0.09489 -0.975862,0.425047 -1.443359,0.679687 0.04741,-0.05001 0.113618,-0.03745 0.158203,-0.09375 a 0.50005,0.50005 0 0 0 0.107422,-0.302734 c 0.0096,-0.617869 0.364214,-1.129986 0.8125,-1.363281 0.448285,-0.233296 0.949433,-0.235949 1.46875,0.259765 a 0.50005,0.50005 0 0 0 0.01563,0.01367 c 0.550007,0.482314 1.249309,0.652848 1.919922,0.664063 0.660978,0.01105 1.30994,-0.130977 1.86914,-0.308594 0.493606,-0.118506 0.88802,-0.352296 1.146485,-0.667969 0.261202,-0.319018 0.380444,-0.690073 0.443359,-1.042969 0.09387,-0.526531 0.103871,-0.955758 0.144531,-1.365234 0.09517,0.033795 0.232298,0.013523 0.316406,0.087891 0.182652,0.1614985 0.363289,0.453186 0.525391,0.820313 0.324203,0.734253 0.534512,1.72578 1.183594,2.412109 a 0.50005,0.50005 0 0 0 0.138672,0.103516 c 0.289257,0.145685 0.584845,0.216728 0.875,0.167969 0.290155,-0.04876 0.529689,-0.222931 0.6875,-0.414063 0.315621,-0.382263 0.431894,-0.836067 0.568359,-1.251953 0.136466,-0.415886 0.287549,-0.788371 0.419922,-0.9375 0.06619,-0.07456 0.106952,-0.09653 0.167969,-0.109375 0.04685,-0.0099 0.158532,0.01402 0.277343,0.04687 0.382826,0.390972 0.804102,1.057532 1.394532,1.566406 0.311768,0.268704 0.696893,0.496374 1.162109,0.527344 0.453683,0.0302 0.931662,-0.155124 1.392578,-0.511719 0.904102,-0.517009 1.338829,-1.361224 1.621094,-2.160156 0.279343,-0.7906635 0.467364,-1.5475936 0.808594,-2.1015629 0.201768,-0.185931 0.324857,-0.2255882 0.408203,-0.2089844 z M 9.7441406,10.349609 c 0.1882785,-0.0053 0.4152734,0.07148 0.6308594,0.228516 0.431171,0.314081 0.729775,0.919774 0.642578,1.363281 L 11.101563,11.75 c -0.500422,0.709372 -0.413626,1.592481 0.0293,2.169922 0.205,0.267259 0.544811,0.4469 0.921875,0.466797 -0.655678,0.551209 -1.207831,1.223513 -1.638671,1.929687 C 9.3349446,17.720057 8.4660594,19.251721 7.6445312,20.798828 7.3171259,20.357534 6.9882474,19.883918 6.703125,19.525391 6.4819676,19.247296 6.3312618,18.991058 6.2792969,18.773437 c -0.051965,-0.21762 -0.04144,-0.403243 0.1347656,-0.693359 l -0.025391,0.04102 c 0.9000566,-1.204793 1.3579002,-2.55397 1.9628906,-3.742188 l -0.1132812,0.148438 c 0.3855006,-0.34155 0.597869,-0.76383 0.6835937,-1.167969 0.085725,-0.404139 0.063547,-0.786874 0.039063,-1.132812 -0.048969,-0.691877 -0.1029484,-1.172412 0.234375,-1.578125 0.1936121,-0.232182 0.3605497,-0.293521 0.5488281,-0.298829 z"
         id="path7"
         inkscape:label="FireStroke" />
      <g
         id="g1"
         style="filter:url(#filter6)"
         transform="translate(-0.19785656,-0.51442705)">
        <path
           style="fill:#e45323;fill-opacity:1;stroke:none;stroke-width:1;stroke-linecap:round;stroke-linejoin:round;stroke-dasharray:none;stroke-opacity:1"
           d="M 7.6914062,21.671875 C 7.2210905,20.376486 5.0533249,19.35856 5.9871912,17.820981 6.8269735,16.69687 7.2799506,15.382186 7.906077,14.152456 9.1401632,13.059068 7.852592,11.481219 8.8112959,10.328144 c 1.0873236,-1.3039299 2.9705881,0.322991 2.6978631,1.710142 -0.719908,1.020505 0.320194,2.713733 1.346318,1.417964 0.02484,-1.604447 1.817274,-2.70738 3.12697,-1.45721 0.870578,0.763429 2.281114,0.590479 3.333713,0.252286 1.672992,-0.39138 1.114288,-2.061372 1.426087,-3.1952475 1.851404,-0.2358836 1.826047,2.5222665 2.821758,3.5751165 1.818086,0.915682 0.986641,-3.3003169 3.036404,-2.503735 0.96247,0.907348 1.783413,2.922308 3.408058,1.629894 1.580396,-0.867119 1.453968,-2.8623451 2.3107,-4.1872137 1.288608,-1.301912 2.320465,1.0450557 2.050107,2.1703624 -0.143903,1.7231093 -1.074401,3.7183523 0.204681,5.2403383 0.543317,1.072765 1.689415,1.27668 1.661269,-0.121588 0.786908,-1.255606 2.191547,-2.484295 1.806646,-4.122724 -0.726321,-1.5886085 1.430804,-0.449957 1.634545,0.351334 0.756302,1.341663 0.249895,3.005234 -0.131779,4.387755 -0.494827,1.627619 -2.091278,2.584565 -2.507928,4.242781 -0.261154,0.629579 -0.686372,2.366955 -1.01858,0.845022 -1.081451,-2.549019 -2.626255,-5.272211 -5.418001,-6.198314 -1.985431,-0.960927 -4.212017,-0.185666 -5.975277,0.883985 -1.392059,0.897324 -3.15119,0.771113 -4.620557,0.143874 -1.76426,-0.629735 -3.385627,-2.143504 -5.379418,-1.722199 -1.664691,0.283013 -2.95139,1.52816 -3.796866,2.920752 -1.2178518,1.579429 -2.2296528,3.307228 -3.1366028,5.080356 z"
           id="path4"
           inkscape:label="FireOrange" />
        <path
           id="path3"
           style="baseline-shift:baseline;display:inline;overflow:visible;opacity:1;vector-effect:none;fill:#ffcd06;fill-opacity:1;stroke-linecap:round;stroke-linejoin:round;enable-background:accumulate;stop-color:#000000;stop-opacity:1"
           d="m 33.117574,7.1878879 c -0.246367,-0.013433 -0.516945,0.098019 -0.798828,0.3828125 -0.856732,1.3248686 -0.730151,3.3203806 -2.310547,4.1874996 -1.624645,1.292414 -2.445733,-0.723511 -3.408203,-1.630859 -2.049763,-0.7965819 -1.21707,3.419588 -3.035156,2.503906 -0.995711,-1.05285 -0.970862,-3.8101021 -2.822266,-3.5742185 -0.311799,1.1338755 0.247211,2.8019795 -1.425781,3.1933595 -1.052599,0.338193 -2.463406,0.511476 -3.333984,-0.251953 -1.309696,-1.25017 -3.102114,-0.147416 -3.126953,1.457031 -1.026124,1.295769 -2.067565,-0.397464 -1.347657,-1.417969 0.272725,-1.387151 -1.6099418,-3.012914 -2.6972654,-1.708984 -0.9587039,1.153075 0.3297894,2.730831 -0.9042968,3.824219 -0.6261264,1.22973 -1.0801396,2.543857 -1.9199219,3.667968 -0.9338663,1.537579 1.2347624,2.556174 1.7050781,3.851563 0.90695,-1.773128 1.918867,-3.500649 3.136719,-5.080078 0.845476,-1.392592 2.132184,-2.638862 3.796875,-2.921875 1.993791,-0.421305 3.614646,1.092921 5.378906,1.722656 1.469367,0.627239 3.229035,0.752793 4.621094,-0.144531 1.76326,-1.069651 3.989178,-1.84374 5.974609,-0.882813 2.791746,0.926103 4.336518,3.648247 5.417969,6.197266 0.332208,1.521933 0.758377,-0.214171 1.019531,-0.84375 0.41665,-1.658216 2.012986,-2.616522 2.507813,-4.244141 0.381674,-1.382521 0.887161,-3.045056 0.130859,-4.386719 -0.203741,-0.80129 -2.361087,-1.9401705 -1.634766,-0.351562 0.384901,1.638429 -1.019732,2.867441 -1.80664,4.123047 0.02815,1.398268 -1.11684,1.193859 -1.660157,0.121094 C 33.295523,13.458871 34.225624,11.463732 34.369527,9.7406222 34.580745,8.8614764 33.997459,7.2358643 33.117574,7.1878879 Z m -0.03906,1.4140625 c 0.120201,0.3363486 0.236754,0.8160051 0.220703,0.8828125 a 1.10011,1.10011 0 0 0 -0.02539,0.1640625 c -0.05852,0.7006946 -0.32491,1.6332296 -0.429687,2.6777346 -0.06802,0.678098 0.05241,1.43782 0.318359,2.183593 -0.626501,-0.48199 -1.338103,-0.874797 -2.144531,-1.152343 -0.445002,-0.208708 -0.894957,-0.2933 -1.34375,-0.375 0.323694,-0.104317 0.661304,-0.119087 0.949219,-0.337891 1.03726,-0.617891 1.555702,-1.611474 1.849609,-2.443359 0.23928,-0.677266 0.409427,-1.1630554 0.605469,-1.5996096 z M 9.7425743,10.943747 h 0.00195 l 0.00195,0.002 h 0.00195 c 8.047e-4,3.61e-4 0.005,0.0016 0.00586,0.002 h 0.00195 l 0.00195,0.002 h 0.00195 0.00195 c 0.023973,-6.76e-4 0.1310148,0.01807 0.2617185,0.113281 0.208892,0.152164 0.359999,0.456874 0.398438,0.646484 -0.4565609,0.87745 -0.319122,1.857119 0.232422,2.576172 0.103337,0.134721 0.348868,0.135814 0.5,0.248047 -0.450021,0.471824 -0.921283,0.936704 -1.244141,1.464844 -0.9032776,1.180534 -1.6010038,2.465433 -2.3125,3.740234 C 7.4498487,19.58267 7.2814097,19.287524 7.1742149,19.152732 6.9780671,18.906086 6.8828888,18.713694 6.863668,18.6332 c -0.019221,-0.08049 -0.043039,-0.06325 0.064453,-0.240234 0.8878285,-1.218441 1.3481166,-2.502933 1.8808594,-3.585938 0.3747521,-0.397587 0.6076874,-0.881544 0.7011719,-1.322265 0.1072184,-0.505468 0.074018,-0.942926 0.048828,-1.298828 -0.050295,-0.710609 -0.068331,-0.95182 0.097656,-1.152344 0.049875,-0.05981 0.071129,-0.08193 0.082031,-0.08789 h 0.00195 z m 11.8613277,0.228516 c 0.23325,0.650095 0.457602,1.469908 1.16211,2.214844 a 1.10011,1.10011 0 0 0 0.302734,0.226562 c 0.363654,0.183155 0.794072,0.30057 1.246094,0.224609 0.452023,-0.07596 0.829447,-0.354978 1.050781,-0.623046 0.442669,-0.536137 0.540929,-1.036297 0.675781,-1.447266 0.07907,-0.240968 0.115943,-0.295578 0.175782,-0.425781 0.289081,0.361119 0.566634,0.779941 1.121093,1.257812 0.172983,0.14909 0.477684,0.197041 0.710938,0.316406 -1.461217,0.140949 -2.857646,0.703144 -3.994141,1.392579 a 1.10011,1.10011 0 0 0 -0.02539,0.01563 c -0.997878,0.643234 -2.366937,0.580339 -3.59375,0.05664 a 1.10011,1.10011 0 0 0 -0.06055,-0.02344 c -0.52015,-0.185663 -1.172575,-0.549102 -1.816406,-0.88086 0.347248,-0.0586 0.725397,-0.07262 1.029296,-0.167968 0.589658,-0.143362 1.120657,-0.444864 1.464844,-0.865235 0.336988,-0.411577 0.474782,-0.87003 0.550781,-1.271484 z m -7.167968,1.416015 c -0.0028,0.0014 -0.0069,0.0025 -0.0098,0.0039 l -0.002,0.002 c -0.0068,0.0014 -0.01318,3.47e-4 -0.01953,0 z m 24.421875,0.119141 c 0.0074,0.726216 -0.11655,1.543567 -0.367188,2.453125 -0.169746,0.554968 -0.574333,1.088581 -1.091797,1.744141 -0.395242,0.500722 -0.768115,1.207463 -1.08789,1.941406 -0.342305,-0.701172 -0.692973,-1.390253 -1.150391,-2.056641 0.150437,0.0404 0.252641,0.151173 0.425781,0.15625 0.495598,0.01453 1.080336,-0.265842 1.38086,-0.697265 0.176096,-0.252799 0.166455,-0.545925 0.216796,-0.826172 0.324334,-0.511847 0.869153,-1.132939 1.337891,-1.914063 0.138572,-0.230922 0.225983,-0.527306 0.335938,-0.800781 z m -5.236329,2.814453 c 0.02572,0.0316 0.05564,0.05888 0.07617,0.0957 0.01434,0.01789 0.01595,0.03767 0.02539,0.05664 z"
           inkscape:label="FireYellow" />
      </g>
      <path
         style="fill:none;fill-opacity:1;stroke:#000000;stroke-width:1.5;stroke-linecap:round;stroke-linejoin:round;stroke-dasharray:none;stroke-opacity:1"
         d="M 7.4935496,21.157448 C 7.0232339,19.862059 4.8554683,18.844133 5.7893346,17.306554 6.6291169,16.182443 7.082094,14.867759 7.7082204,13.638029 8.9423066,12.544641 7.6547354,10.966792 8.6134393,9.813717 c 1.0873236,-1.3039299 2.9705877,0.322991 2.6978627,1.710142 -0.719908,1.020505 0.320194,2.713733 1.346318,1.417964 0.02484,-1.604447 1.817274,-2.70738 3.12697,-1.45721 0.870578,0.763429 2.281114,0.590479 3.333713,0.252286 1.672992,-0.39138 1.114288,-2.061372 1.426087,-3.1952475 1.851404,-0.2358836 1.826047,2.5222665 2.821758,3.5751165 1.818086,0.915682 0.986641,-3.3003169 3.036404,-2.503735 0.96247,0.907348 1.783413,2.922308 3.408058,1.629894 1.580396,-0.867119 1.453968,-2.8623451 2.3107,-4.1872137 1.288608,-1.301912 2.320465,1.0450557 2.050107,2.1703624 -0.143903,1.7231093 -1.074401,3.7183523 0.204681,5.2403383 0.543317,1.072765 1.689415,1.27668 1.661269,-0.121588 0.786908,-1.255606 2.191547,-2.484295 1.806646,-4.122724 -0.726321,-1.5886085 1.430804,-0.449957 1.634545,0.351334 0.756302,1.341663 0.249895,3.005234 -0.131779,4.387755 -0.494827,1.627619 -2.091278,2.584565 -2.507928,4.242781 -0.261154,0.629579 -0.686372,2.366955 -1.01858,0.845022 -1.081451,-2.549019 -2.626255,-5.272211 -5.418001,-6.198314 -1.985431,-0.960927 -4.212017,-0.185666 -5.975277,0.883985 -1.392059,0.897324 -3.15119,0.771113 -4.620557,0.143874 -1.76426,-0.629735 -3.385627,-2.143504 -5.379418,-1.722199 -1.664691,0.283013 -2.95139,1.52816 -3.796866,2.920752 -1.2178514,1.579429 -2.2296524,3.307228 -3.1366024,5.080356 z"
         id="path2"
         inkscape:label="Outline" />
      <path
         id="path1"
         style="fill:#33711d;fill-opacity:1;stroke:#000000;stroke-width:1.5;stroke-linecap:round;stroke-linejoin:round;stroke-dasharray:none;stroke-opacity:1"
         d="m 15.826172,12.955078 c -0.686982,-0.02629 -1.575995,0.133679 -2.38086,0.466797 -1.038942,0.429997 -2.080599,1.059876 -2.722656,1.945313 -0.9999998,1.593568 -2.5379157,4.304687 -3.0312498,6.304687 1,2 1.0292969,1.890777 2.0292969,2.972656 C 11.720703,24.884781 11.644531,21.477744 13.644531,21 16.644531,25 15,39 16,39 h 4 4 4 c 1,0 -0.644531,-14 2.355469,-18 2,0.477744 1.923828,3.884781 3.923828,3.644531 1,-1.081879 1.029297,-0.972656 2.029297,-2.972656 -0.493334,-2 -2.03125,-4.711119 -3.03125,-6.304687 -0.642057,-0.885437 -1.683714,-1.515316 -2.722656,-1.945313 -0.804865,-0.333118 -1.693878,-0.493088 -2.38086,-0.466797 L 27,13 c -5.11e-4,5.65e-4 -1.195037,1.319551 -3,2.023438 -0.605344,0.236067 -1.279348,0.402988 -2,0.427734 -0.720652,-0.02475 -1.394656,-0.191668 -2,-0.427734 C 18.195037,14.319551 17.000511,13.000565 17,13 Z"
         inkscape:label="Shirt" />
    </g>
  </g>
</svg>
