<?xml version="1.0" encoding="UTF-8" standalone="no"?>
<!-- Created with Inkscape (http://www.inkscape.org/) -->

<svg
   width="48"
   height="48"
   viewBox="0 0 48 48"
   version="1.1"
   id="svg1"
   inkscape:version="1.4.4 (dcaf3e7, 2026-05-05)"
   sodipodi:docname="Gene_ApparelIncineration.svg"
   inkscape:export-filename="Gene_ApparelIncineration.png"
   inkscape:export-xdpi="256"
   inkscape:export-ydpi="256"
   xmlns:inkscape="http://www.inkscape.org/namespaces/inkscape"
   xmlns:sodipodi="http://sodipodi.sourceforge.net/DTD/sodipodi-0.dtd"
   xmlns="http://www.w3.org/2000/svg"
   xmlns:svg="http://www.w3.org/2000/svg">
  <sodipodi:namedview
     id="namedview1"
     pagecolor="#ffffff"
     bordercolor="#000000"
     borderopacity="0.25"
     inkscape:showpageshadow="2"
     inkscape:pageopacity="0.0"
     inkscape:pagecheckerboard="0"
     inkscape:deskcolor="#d1d1d1"
     inkscape:document-units="px"
     showgrid="true"
     inkscape:zoom="25.270833"
     inkscape:cx="15.39324"
     inkscape:cy="22.852432"
     inkscape:window-width="2560"
     inkscape:window-height="1494"
     inkscape:window-x="-11"
     inkscape:window-y="-11"
     inkscape:window-maximized="1"
     inkscape:current-layer="layer1">
    <inkscape:grid
       id="grid1"
       units="px"
       originx="0"
       originy="0"
       spacingx="1"
       spacingy="1"
       empcolor="#000000"
       empopacity="0.8627451"
       color="#0099e5"
       opacity="0.14901961"
       empspacing="8"
       enabled="true"
       visible="true" />
  </sodipodi:namedview>
  <defs
     id="defs1">
    <filter
       style="color-interpolation-filters:sRGB;"
       inkscape:label="Blur"
       id="filter7"
       x="-0.13598047"
       y="-0.30999862"
       width="1.2719609"
       height="1.6199972">
      <feGaussianBlur
         stdDeviation="2 2"
         result="blur"
         id="feGaussianBlur7" />
    </filter>
  </defs>
  <g
     inkscape:label="Layer 1"
     inkscape:groupmode="layer"
     id="layer1">
    <g
       id="g7"
       transform="translate(1.995707,0.607034)">
      <path
         style="fill:#f95c00;fill-opacity:1;stroke:none;stroke-width:1;stroke-linecap:round;stroke-linejoin:round;stroke-dasharray:none;stroke-opacity:1"
         d="M 7.6914062,21.671875 C 7.2210905,20.376486 5.0533249,19.35856 5.9871912,17.820981 6.8269735,16.69687 7.2799506,15.382186 7.906077,14.152456 9.1401632,13.059068 7.852592,11.481219 8.8112959,10.328144 c 1.0873236,-1.3039299 2.9705881,0.322991 2.6978631,1.710142 -0.719908,1.020505 0.320194,2.713733 1.346318,1.417964 0.02484,-1.604447 1.817274,-2.70738 3.12697,-1.45721 0.870578,0.763429 2.281114,0.590479 3.333713,0.252286 1.672992,-0.39138 1.114288,-2.061372 1.426087,-3.1952475 1.851404,-0.2358836 1.826047,2.5222665 2.821758,3.5751165 1.818086,0.915682 0.986641,-3.3003169 3.036404,-2.503735 0.96247,0.907348 1.783413,2.922308 3.408058,1.629894 1.580396,-0.867119 1.453968,-2.8623451 2.3107,-4.1872137 1.288608,-1.301912 2.320465,1.0450557 2.050107,2.1703624 -0.143903,1.7231093 -1.074401,3.7183523 0.204681,5.2403383 0.543317,1.072765 1.689415,1.27668 1.661269,-0.121588 0.786908,-1.255606 2.191547,-2.484295 1.806646,-4.122724 -0.726321,-1.5886085 1.430804,-0.449957 1.634545,0.351334 0.756302,1.341663 0.249895,3.005234 -0.131779,4.387755 -0.494827,1.627619 -2.091278,2.584565 -2.507928,4.242781 -0.261154,0.629579 -0.686372,2.366955 -1.01858,0.845022 -1.081451,-2.549019 -2.626255,-5.272211 -5.418001,-6.198314 -1.985431,-0.960927 -4.212017,-0.185666 -5.975277,0.883985 -1.392059,0.897324 -3.15119,0.771113 -4.620557,0.143874 -1.76426,-0.629735 -3.385627,-2.143504 -5.379418,-1.722199 -1.664691,0.283013 -2.95139,1.52816 -3.796866,2.920752 -1.2178518,1.579429 -2.2296528,3.307228 -3.1366028,5.080356 z"
         id="path4"
         inkscape:label="FireOrange" />
      <path
         id="path6"
         style="fill:#f9ea00;fill-opacity:1;stroke:none;stroke-width:1;stroke-linecap:round;stroke-linejoin:round;stroke-dasharray:none;stroke-opacity:1"
         inkscape:label="FireYellow"
         d="m 33.089844,7.6875 c -0.08215,-9.906e-4 -0.198453,0.050201 -0.375,0.2128906 -0.34123,0.5539693 -0.529251,1.3108995 -0.808594,2.1015624 -0.282265,0.798932 -0.716992,1.643147 -1.621094,2.160156 -0.460916,0.356595 -0.938895,0.541919 -1.392578,0.511719 -0.465216,-0.03097 -0.850341,-0.25864 -1.162109,-0.527344 -0.59043,-0.508874 -1.011705,-1.175434 -1.394531,-1.566406 -0.118812,-0.03285 -0.230494,-0.05678 -0.277344,-0.04687 -0.06102,0.01285 -0.101779,0.03482 -0.167969,0.109375 -0.132373,0.149129 -0.283456,0.521614 -0.419922,0.9375 -0.136465,0.415886 -0.252738,0.86969 -0.568359,1.251953 -0.157811,0.191132 -0.397345,0.365303 -0.6875,0.414063 -0.290155,0.04876 -0.585743,-0.02228 -0.875,-0.167969 A 0.50005,0.50005 0 0 1 23.201172,12.974609 C 22.55209,12.28828 22.341781,11.296753 22.017578,10.5625 21.855476,10.195373 21.67484,9.903686 21.492188,9.7421875 21.408079,9.6678195 21.270951,9.6880919 21.175781,9.6542969 21.135121,10.063773 21.12512,10.493 21.03125,11.019531 c -0.06292,0.352896 -0.182157,0.723951 -0.443359,1.042969 -0.258465,0.315673 -0.652879,0.549463 -1.146485,0.667969 -0.5592,0.177617 -1.208162,0.319643 -1.86914,0.308593 -0.670613,-0.01121 -1.369915,-0.181748 -1.919922,-0.664062 a 0.50005,0.50005 0 0 1 -0.01563,-0.01367 c -0.519317,-0.495714 -1.020465,-0.493061 -1.46875,-0.259766 -0.448286,0.233296 -0.8029,0.745413 -0.8125,1.363282 a 0.50005,0.50005 0 0 1 -0.107422,0.302734 c -0.0025,0.0031 -0.0052,0.0051 -0.0078,0.0078 0.410271,-0.238395 0.801002,-0.509139 1.292969,-0.59375 1.137323,-0.236477 2.165116,0.07993 3.078125,0.501953 0.916305,0.423543 1.752207,0.949752 2.560547,1.238281 a 0.50005,0.50005 0 0 1 0.0293,0.01172 c 1.359115,0.580175 2.939458,0.67636 4.152344,-0.105469 a 0.50005,0.50005 0 0 1 0.01172,-0.0059 c 1.823799,-1.106376 4.220904,-1.964762 6.425782,-0.914063 2.897658,0.979915 4.459975,3.703009 5.550781,6.214844 0.07733,-0.213274 0.147471,-0.388428 0.222656,-0.570313 0.245506,-0.931685 0.797018,-1.634192 1.304688,-2.277343 0.514569,-0.651895 0.982916,-1.24639 1.195312,-1.941407 0.383884,-1.39055 0.797219,-2.897583 0.175781,-4 a 0.50005,0.50005 0 0 1 -0.04883,-0.123046 c -0.006,-0.02351 -0.114766,-0.208996 -0.291015,-0.365235 -0.116048,-0.102872 -0.247459,-0.167294 -0.376953,-0.240234 a 0.50005,0.50005 0 0 1 0.0059,0.01758 c 0.229782,0.978126 -0.089,1.852208 -0.523438,2.576172 -0.430327,0.717114 -0.972519,1.336181 -1.333984,1.908203 -0.02527,0.291894 -0.04786,0.582398 -0.197266,0.796875 -0.19768,0.283784 -0.550116,0.450806 -0.871093,0.441406 -0.616978,-0.01809 -1.097655,-0.464101 -1.427735,-1.076172 -0.723855,-0.882672 -0.830365,-1.925887 -0.734375,-2.882812 0.09711,-0.96811 0.363848,-1.899064 0.429688,-2.6875002 a 0.50005,0.50005 0 0 1 0.01172,-0.076172 c 0.08293,-0.345345 -0.07323,-1.1647106 -0.367241,-1.595654 -0.147006,-0.2154718 -0.300818,-0.3176576 -0.392578,-0.3359376 -0.01042,-0.00208 -0.02147,-0.00376 -0.0332,-0.00391 z M 9.7441406,10.349609 c -0.1882784,0.0053 -0.355216,0.06665 -0.5488281,0.298829 -0.3373234,0.405713 -0.283344,0.886248 -0.234375,1.578124 0.024484,0.345938 0.046663,0.728674 -0.039063,1.132813 -0.080233,0.378249 -0.2711062,0.772592 -0.6113281,1.101563 -0.5837204,1.16578 -1.0399271,2.47689 -1.9160157,3.652343 -0.1567128,0.270817 -0.165134,0.451186 -0.1152343,0.660157 0.051965,0.21762 0.2026707,0.473858 0.4238281,0.751953 0.2851224,0.358527 0.6140009,0.832143 0.9414062,1.273437 0.8215282,-1.547107 1.6904089,-3.078771 2.7695303,-4.482422 0.43084,-0.706174 0.982994,-1.378478 1.638672,-1.929687 -0.377064,-0.0199 -0.716875,-0.199538 -0.921875,-0.466797 C 10.710672,13.372125 10.611185,12.550007 11.029297,11.861328 11.068942,11.427577 10.7805,10.873506 10.375,10.578125 10.159414,10.421089 9.9324191,10.344309 9.7441406,10.349609 Z m 3.4257814,3.466797 c -0.02797,0.01011 -0.05644,0.01999 -0.08008,0.04492 0.02677,-0.01458 0.05356,-0.0299 0.08008,-0.04492 z" />
      <path
         style="baseline-shift:baseline;display:inline;overflow:visible;opacity:1;vector-effect:none;fill:#f9ea00;fill-opacity:1;stroke-linecap:round;stroke-linejoin:round;filter:url(#filter7);enable-background:accumulate;stop-color:#000000;stop-opacity:1"
         d="M 33.318359,6.7109375 C 32.862675,6.6201582 32.361349,6.8161779 31.962891,7.21875 a 0.50005,0.50005 0 0 0 -0.06445,0.080078 c -0.496603,0.7679579 -0.67665,1.636351 -0.935546,2.3691407 -0.258897,0.7327893 -0.551832,1.2973303 -1.195313,1.6503903 a 0.50005,0.50005 0 0 0 -0.07031,0.04687 c -0.340571,0.270926 -0.562562,0.322245 -0.738282,0.310547 -0.175719,-0.0117 -0.359314,-0.100206 -0.576172,-0.287109 -0.433714,-0.373806 -0.875426,-1.093276 -1.439453,-1.6250002 A 0.50005,0.50005 0 0 0 26.78125,9.6621094 c -0.320301,-0.124476 -0.634782,-0.1690919 -0.927734,-0.1074219 -0.292953,0.06167 -0.538417,0.2294694 -0.710938,0.4238281 -0.345042,0.3887174 -0.483892,0.8649814 -0.623047,1.2890624 -0.139154,0.424081 -0.284797,0.801927 -0.388672,0.927735 -0.05194,0.0629 -0.06166,0.06298 -0.08203,0.06641 -0.0121,0.002 -0.09625,-0.0289 -0.154297,-0.04492 -0.33072,-0.388751 -0.600396,-1.237619 -0.96289,-2.058594 C 22.744192,9.7336713 22.520667,9.3144015 22.15625,8.9921875 21.791833,8.6699735 21.263581,8.4861542 20.679687,8.5605469 a 0.50005,0.50005 0 0 0 -0.419921,0.3632812 c -0.192783,0.701064 -0.121875,1.4094039 -0.212891,1.9199219 -0.04551,0.255259 -0.118109,0.446322 -0.232422,0.585938 -0.114313,0.139615 -0.275885,0.25551 -0.611328,0.333984 a 0.50005,0.50005 0 0 0 -0.03906,0.01172 c -0.488005,0.156793 -1.058769,0.272291 -1.574218,0.263672 -0.51545,-0.0086 -0.956774,-0.134901 -1.277344,-0.416016 l 0.01563,0.01367 c -0.790379,-0.754457 -1.839528,-0.830569 -2.621094,-0.423828 -0.698753,0.363643 -1.156941,1.101466 -1.269531,1.953125 -0.175065,0.205063 -0.302089,0.258404 -0.34375,0.259765 -0.04476,0.0015 -0.09308,-0.0131 -0.169922,-0.113281 -0.153683,-0.200357 -0.225346,-0.675195 -0.0059,-0.986328 A 0.50005,0.50005 0 0 0 12,12.134766 C 12.185528,11.191122 11.678955,10.289716 10.964844,9.7695313 10.607788,9.5094388 10.176964,9.3365826 9.7148438,9.3496094 9.252723,9.3626361 8.7777841,9.5880292 8.4277344,10.007813 7.8063539,10.755174 7.916272,11.640164 7.9628906,12.298828 c 0.023309,0.329332 0.030371,0.618259 -0.019531,0.853516 -0.049902,0.235256 -0.1375982,0.419855 -0.3691407,0.625 a 0.50005,0.50005 0 0 0 -0.1132812,0.148437 c -0.6472624,1.271242 -1.095492,2.552274 -1.875,3.595703 a 0.50005,0.50005 0 0 0 -0.025391,0.03906 c -0.2907278,0.478673 -0.3604449,0.999147 -0.2539063,1.445312 0.1065386,0.446166 0.3523943,0.81207 0.6152344,1.142578 0.5256803,0.661017 1.1334304,1.237806 1.2988281,1.69336 a 0.50005,0.50005 0 0 0 0.9160157,0.05859 c 0.898262,-1.756143 1.8959384,-3.458066 3.0878904,-5.003907 a 0.50005,0.50005 0 0 0 0.03125,-0.04492 c 0.797304,-1.313246 1.985358,-2.437965 3.453125,-2.687499 a 0.50005,0.50005 0 0 0 0.01953,-0.0039 c 0.851557,-0.179941 1.628999,0.04619 2.46289,0.431641 0.828927,0.383154 1.679863,0.922091 2.628906,1.263672 1.57764,0.670401 3.508521,0.824964 5.076172,-0.185547 1.693056,-1.024602 3.73166,-1.704709 5.486328,-0.855469 a 0.50005,0.50005 0 0 0 0.06055,0.02539 c 2.562485,0.85005 4.045094,3.402267 5.109375,5.908203 0.04,0.168893 0.08099,0.321966 0.138672,0.449219 0.06769,0.149329 0.148676,0.313248 0.382813,0.419921 0.234137,0.106674 0.537603,0.0048 0.666015,-0.103515 0.128413,-0.108267 0.189598,-0.214228 0.25,-0.322266 0.241611,-0.432149 0.402805,-1.028101 0.507813,-1.28125 a 0.50005,0.50005 0 0 0 0.02344,-0.07031 c 0.177085,-0.704775 0.62227,-1.298519 1.132813,-1.945313 0.510543,-0.646793 1.086132,-1.342546 1.36914,-2.273437 a 0.50005,0.50005 0 0 0 0.0039,-0.01172 c 0.37346,-1.352767 0.93156,-3.134422 0.0957,-4.697266 -0.105919,-0.340553 -0.311885,-0.595754 -0.558594,-0.814453 -0.262816,-0.2329773 -0.562372,-0.4255587 -0.871094,-0.5468747 -0.15436,-0.060658 -0.310927,-0.105192 -0.490234,-0.1113282 -0.179307,-0.00614 -0.415538,0.035141 -0.595703,0.2167969 -0.180165,0.1816555 -0.22869,0.4393 -0.210938,0.648438 0.01775,0.209137 0.08585,0.409761 0.191407,0.640625 l -0.0332,-0.09375 c 0.155119,0.660302 -0.03787,1.218142 -0.40625,1.832031 -0.368383,0.613889 -0.910365,1.231105 -1.335937,1.910156 a 0.50005,0.50005 0 0 0 -0.07813,0.275391 c 0.0057,0.281548 -0.0538,0.427123 -0.08008,0.464843 -0.02628,0.03772 0.0085,0.01455 -0.02148,0.01367 -0.05989,-0.0018 -0.39988,-0.170443 -0.613281,-0.591797 a 0.50005,0.50005 0 0 0 -0.0625,-0.09766 c -0.531883,-0.632891 -0.605825,-1.331089 -0.521484,-2.171875 0.08197,-0.817131 0.333873,-1.720933 0.419922,-2.6289061 v -0.00195 C 35.042042,9.0759606 34.817896,8.1607244 34.341797,7.4628906 34.103558,7.1136962 33.774044,6.8017168 33.318359,6.7109375 Z m -0.195312,0.9804687 c 0.09176,0.01828 0.245572,0.1204658 0.392578,0.3359376 0.294013,0.4309435 0.450169,1.250309 0.367187,1.5957031 a 0.50005,0.50005 0 0 0 -0.01172,0.076172 c -0.06584,0.7884361 -0.332575,1.7193901 -0.429688,2.6875001 -0.09599,0.956925 0.01052,2.00014 0.734375,2.882812 0.33008,0.612071 0.810757,1.058079 1.427735,1.076172 0.320977,0.0094 0.673413,-0.157622 0.871093,-0.441406 0.149402,-0.214477 0.171994,-0.504981 0.197266,-0.796875 0.361465,-0.572022 0.903657,-1.191089 1.333984,-1.908203 0.434438,-0.723964 0.75322,-1.598046 0.523438,-2.576172 a 0.50005,0.50005 0 0 0 -0.0059,-0.01758 c 0.129494,0.07294 0.260906,0.137362 0.376954,0.240234 0.176249,0.156239 0.285036,0.34172 0.291015,0.365235 a 0.50005,0.50005 0 0 0 0.04883,0.123046 c 0.621438,1.102417 0.208103,2.60945 -0.175781,4 -0.212396,0.695017 -0.680743,1.289512 -1.195312,1.941407 -0.515552,0.653138 -1.076841,1.366871 -1.316407,2.320312 l 0.02148,-0.06836 c -0.07915,0.19081 -0.151581,0.372755 -0.232422,0.595703 -1.090806,-2.511835 -2.653123,-5.234929 -5.550781,-6.214844 -2.204878,-1.050699 -4.601983,-0.192313 -6.425782,0.914063 a 0.50005,0.50005 0 0 0 -0.01172,0.0059 c -1.212886,0.781829 -2.793229,0.685644 -4.152344,0.105469 a 0.50005,0.50005 0 0 0 -0.0293,-0.01172 c -0.80834,-0.288529 -1.644242,-0.814738 -2.560547,-1.238281 -0.913009,-0.42202 -1.940802,-0.73843 -3.078125,-0.501953 -0.551729,0.09489 -0.975862,0.425047 -1.443359,0.679687 0.04741,-0.05001 0.113618,-0.03745 0.158203,-0.09375 a 0.50005,0.50005 0 0 0 0.107422,-0.302734 c 0.0096,-0.617869 0.364214,-1.129986 0.8125,-1.363281 0.448285,-0.233296 0.949433,-0.235949 1.46875,0.259765 a 0.50005,0.50005 0 0 0 0.01563,0.01367 c 0.550007,0.482314 1.249309,0.652848 1.919922,0.664063 0.660978,0.01105 1.30994,-0.130977 1.86914,-0.308594 0.493606,-0.118506 0.88802,-0.352296 1.146485,-0.667969 0.261202,-0.319018 0.380444,-0.690073 0.443359,-1.042969 0.09387,-0.526531 0.103871,-0.955758 0.144531,-1.365234 0.09517,0.033795 0.232298,0.013523 0.316406,0.087891 0.182652,0.1614985 0.363289,0.453186 0.525391,0.820313 0.324203,0.734253 0.534512,1.72578 1.183594,2.412109 a 0.50005,0.50005 0 0 0 0.138672,0.103516 c 0.289257,0.145685 0.584845,0.216728 0.875,0.167969 0.290155,-0.04876 0.529689,-0.222931 0.6875,-0.414063 0.315621,-0.382263 0.431894,-0.836067 0.568359,-1.251953 0.136466,-0.415886 0.287549,-0.788371 0.419922,-0.9375 0.06619,-0.07456 0.106952,-0.09653 0.167969,-0.109375 0.04685,-0.0099 0.158532,0.01402 0.277343,0.04687 0.382826,0.390972 0.804102,1.057532 1.394532,1.566406 0.311768,0.268704 0.696893,0.496374 1.162109,0.527344 0.453683,0.0302 0.931662,-0.155124 1.392578,-0.511719 0.904102,-0.517009 1.338829,-1.361224 1.621094,-2.160156 0.279343,-0.7906635 0.467364,-1.5475936 0.808594,-2.1015629 0.201768,-0.185931 0.324857,-0.2255882 0.408203,-0.2089844 z M 9.7441406,10.349609 c 0.1882785,-0.0053 0.4152734,0.07148 0.6308594,0.228516 0.431171,0.314081 0.729775,0.919774 0.642578,1.363281 L 11.101563,11.75 c -0.500422,0.709372 -0.413626,1.592481 0.0293,2.169922 0.205,0.267259 0.544811,0.4469 0.921875,0.466797 -0.655678,0.551209 -1.207831,1.223513 -1.638671,1.929687 C 9.3349446,17.720057 8.4660594,19.251721 7.6445312,20.798828 7.3171259,20.357534 6.9882474,19.883918 6.703125,19.525391 6.4819676,19.247296 6.3312618,18.991058 6.2792969,18.773437 c -0.051965,-0.21762 -0.04144,-0.403243 0.1347656,-0.693359 l -0.025391,0.04102 c 0.9000566,-1.204793 1.3579002,-2.55397 1.9628906,-3.742188 l -0.1132812,0.148438 c 0.3855006,-0.34155 0.597869,-0.76383 0.6835937,-1.167969 0.085725,-0.404139 0.063547,-0.786874 0.039063,-1.132812 -0.048969,-0.691877 -0.1029484,-1.172412 0.234375,-1.578125 0.1936121,-0.232182 0.3605497,-0.293521 0.5488281,-0.298829 z"
         id="path7"
         inkscape:label="FireStroke" />
      <path
         id="path1"
         style="fill:#33711d;fill-opacity:1;stroke:#000000;stroke-width:1;stroke-linecap:round;stroke-linejoin:round;stroke-dasharray:none;stroke-opacity:1"
         d="m 15.826172,12.955078 c -0.686982,-0.02629 -1.575995,0.133679 -2.38086,0.466797 -1.038942,0.429997 -2.080599,1.059876 -2.722656,1.945313 -0.9999998,1.593568 -2.5379157,4.304687 -3.0312498,6.304687 1,2 1.0292969,1.890777 2.0292969,2.972656 C 11.720703,24.884781 11.644531,21.477744 13.644531,21 16.644531,25 15,39 16,39 h 4 4 4 c 1,0 -0.644531,-14 2.355469,-18 2,0.477744 1.923828,3.884781 3.923828,3.644531 1,-1.081879 1.029297,-0.972656 2.029297,-2.972656 -0.493334,-2 -2.03125,-4.711119 -3.03125,-6.304687 -0.642057,-0.885437 -1.683714,-1.515316 -2.722656,-1.945313 -0.804865,-0.333118 -1.693878,-0.493088 -2.38086,-0.466797 L 27,13 c -5.11e-4,5.65e-4 -1.195037,1.319551 -3,2.023438 -0.605344,0.236067 -1.279348,0.402988 -2,0.427734 -0.720652,-0.02475 -1.394656,-0.191668 -2,-0.427734 C 18.195037,14.319551 17.000511,13.000565 17,13 Z"
         inkscape:label="Shirt" />
    </g>
  </g>
</svg>
